<?xml version="1.0" encoding="utf-8"?>
<!-- Generator: Adobe Illustrator 25.3.1, SVG Export Plug-In . SVG Version: 6.00 Build 0)  -->
<svg version="1.1" id="Layer_1" xmlns="http://www.w3.org/2000/svg" xmlns:xlink="http://www.w3.org/1999/xlink" x="0px" y="0px"
	 viewBox="0 0 520.4 120.2" style="enable-background:new 0 0 520.4 120.2;" xml:space="preserve">
<style type="text/css">
	.st0{fill:#A3C57D;}
	.st1{fill:#FFFFFF;}
</style>
<path class="st0" d="M60.6,17.2c-23.7,0-42.9,19.2-42.9,42.9c0,23.7,19.2,42.9,42.9,42.9c8.3,0,16-2.4,22.5-6.5V85.1
	c-4.4,3.8-10.1,6.1-16.3,6.1c-13.8,0-24.9-11.1-24.9-24.9c0-13.8,11.2-24.9,24.9-24.9s24.9,11.2,24.9,24.9v23.3
	c7.3-7.7,11.8-18.1,11.8-29.5C103.5,36.4,84.3,17.2,60.6,17.2z M143.2,37.8c-12.2,0-21.9,9.3-21.9,21.3s9.7,21.3,21.9,21.3
	c12.1,0,21.9-9.3,21.9-21.3S155.3,37.8,143.2,37.8z M143.2,71.7c-7.1,0-12.4-5.5-12.4-12.6c0-7.1,5.3-12.6,12.4-12.6
	c7,0,12.4,5.5,12.4,12.6C155.6,66.2,150.2,71.7,143.2,71.7z M289.1,38.2c-5.8,0-10.4,2.7-12.2,6.5V39h-9.5v40.2h9.5V56.1
	c0-5.5,3.9-9.3,9.3-9.3c5.4,0,8.5,3.5,8.5,8.9v23.5h9.6V54.3C304.4,44.4,298.8,38.2,289.1,38.2z M194.3,38.1c-6.8,0-11.5,3-12.8,6.7
	V39h-9.6v57.4h9.6v-23c1.4,3.8,6.1,6.7,12.8,6.7c11.3,0,20.1-9.1,20.1-21C214.4,47.2,205.6,38.1,194.3,38.1z M193,71.4
	c-6.9,0-12.3-5.3-12.3-12.3c0-7,5.3-12.3,12.3-12.3c6.8,0,11.9,5.3,11.9,12.3C204.9,66.1,199.8,71.4,193,71.4z M241.1,38
	c-12,0-20.8,8.2-20.8,21.1v0.4c0,12.7,8.6,20.9,21.2,20.9c7,0,11.1-1.4,14.8-4.1v-8.9c-2.2,2-6.6,4.6-14.4,4.6
	c-7.2,0-11.8-4.1-12.1-10.5h30.8c0.2-1.6,0.2-3.4,0.2-3.4C260.7,47,252.9,38,241.1,38z M230,54.8c0.3-4.8,5.2-8.6,11.1-8.6
	c5.5,0,9.9,3.9,9.9,8.6H230z"/>
<path class="st1" d="M414,54.3c-4-1.5-7-2.2-7-4.7c0-2.3,2.4-3.4,6.1-3.4c4.5,0,8.5,1.6,11.6,3.8v-8.7c-2.8-2.1-6.9-3.5-12-3.5
	c-8.1,0-14.7,4.2-14.7,11.7c0,5.7,3.2,8.9,8.8,11.3c6,2.6,11.9,3.9,11.9,7.3c0,2.4-2.5,3.8-6.8,3.8c-6.5,0-11.4-2.2-14.9-5.3v9.4
	c4,2.7,8.8,4.3,14.8,4.3c11.8,0,16.2-6.4,16.2-12.4C427.9,59.7,421.2,57,414,54.3 M442.7,54.8c0.3-4.8,5.2-8.6,11.1-8.6
	c5.5,0,9.9,3.9,9.9,8.6H442.7z M453.7,38c-12,0-20.8,8.2-20.8,21.1v0.4c0,12.7,8.6,20.9,21.2,20.9c7,0,11.1-1.4,14.8-4.1v-8.9
	c-2.2,2-6.6,4.6-14.4,4.6c-7.2,0-11.8-4.1-12.1-10.5h30.8c0.2-1.6,0.2-3.4,0.2-3.4C473.4,47,465.6,38,453.7,38 M499.9,47.7V39h-8.4
	V23.6h-9.6V39h-6v8.7h6v19c0,12.1,7.5,13.6,13,13.6c1.8,0,3.6-0.2,4.9-0.5v-8.5c-1.2,0.2-2.3,0.3-3.4,0.3c-3.4,0-5-1.6-5-6v-18
	H499.9z M377.2,54.3c-4-1.5-7-2.2-7-4.7c0-2.3,2.4-3.4,6.1-3.4c4.5,0,8.5,1.6,11.6,3.8v-8.7c-2.8-2.1-6.9-3.5-12-3.5
	c-8.1,0-14.7,4.2-14.7,11.7c0,5.7,3.2,8.9,8.8,11.3c6,2.6,11.9,3.9,11.9,7.3c0,2.4-2.5,3.8-6.8,3.8c-6.5,0-11.4-2.2-14.9-5.3v9.4
	c4,2.7,8.8,4.3,14.8,4.3c11.8,0,16.2-6.4,16.2-12.4C391.1,59.7,384.4,57,377.2,54.3 M332.5,71.4c-6.8,0-11.9-5.3-11.9-12.3
	c0-7,5.1-12.3,11.9-12.3c6.9,0,12.3,5.3,12.3,12.3C344.8,66.1,339.5,71.4,332.5,71.4 M344.1,44.8c-1.4-3.8-6.1-6.7-12.9-6.7
	c-11.3,0-20.1,9.1-20.1,21s8.8,21,20.1,21c6.8,0,11.5-3,12.9-6.7v5.8h9.6V39h-9.6V44.8z"/>
</svg>
